<?xml version="1.0" encoding="utf-8"?>
<!-- Generator: Adobe Illustrator 16.0.0, SVG Export Plug-In . SVG Version: 6.00 Build 0)  -->
<!DOCTYPE svg PUBLIC "-//W3C//DTD SVG 1.1//EN" "http://www.w3.org/Graphics/SVG/1.1/DTD/svg11.dtd">
<svg version="1.1" id="Layer_1" xmlns="http://www.w3.org/2000/svg" xmlns:xlink="http://www.w3.org/1999/xlink" x="0px" y="0px"
	 width="1024px" height="1024px" viewBox="0 0 1024 1024" enable-background="new 0 0 1024 1024" xml:space="preserve">
<path fill="#1DC778" d="M512,1016.415c278.581,0,504.415-225.834,504.415-504.415c0-226.662-149.5-418.393-355.272-481.996
	L349.185,320.45L520.281,7.692c-2.754-0.046-5.512-0.108-8.281-0.108C233.423,7.584,7.584,233.423,7.584,512
	C7.584,790.581,233.423,1016.415,512,1016.415z M512,349.185c89.923,0,162.819,72.893,162.819,162.815
	c0,89.919-72.9,162.819-162.819,162.819c-89.923,0-162.815-72.9-162.815-162.819C349.185,422.077,422.077,349.185,512,349.185z"/>
<g>
</g>
<g>
</g>
<g>
</g>
<g>
</g>
<g>
</g>
<g>
</g>
<g>
</g>
<g>
</g>
<g>
</g>
<g>
</g>
<g>
</g>
<g>
</g>
<g>
</g>
<g>
</g>
<g>
</g>
</svg>
