<?xml version="1.0" encoding="utf-8"?>
<!-- Generator: Adobe Illustrator 16.0.0, SVG Export Plug-In . SVG Version: 6.00 Build 0)  -->
<!DOCTYPE svg PUBLIC "-//W3C//DTD SVG 1.1//EN" "http://www.w3.org/Graphics/SVG/1.1/DTD/svg11.dtd">
<svg version="1.1" id="Stor" xmlns="http://www.w3.org/2000/svg" xmlns:xlink="http://www.w3.org/1999/xlink" x="0px" y="0px"
	 width="150px" height="58px" viewBox="0 0 150 58" enable-background="new 0 0 150 58" xml:space="preserve">
<path id="_x3C_Path_x3E__1_" fill="#1DC778" d="M129.771,36.078h-4.32v12.785h-11.759V9.093h16.305
	c10.965,0,16.304,5.512,16.304,14.26c0,5.058-2.045,8.521-5.68,10.509l8.463,14.999h-12.838L129.771,36.078z M125.451,26.876h4.546
	c2.669,0,4.431-0.911,4.431-3.523c0-2.386-1.365-3.578-4.431-3.578h-4.546V26.876z"/>
<path fill="#1DC778" d="M65.965,19.775h-9.317v29.088h-11.76V19.775h-9.317V9.093h30.394V19.775z"/>
<path id="_x3C_Path_x3E_" fill="#1DC778" d="M88.408,49.556c11.366,0,20.577-9.211,20.577-20.578
	c0-9.247-6.099-17.071-14.493-19.665L81.764,21.163l6.981-12.76c-0.113,0-0.228-0.002-0.339-0.002
	c-11.367,0-20.579,9.215-20.579,20.579C67.828,40.345,77.041,49.556,88.408,49.556z M88.408,22.334c3.668,0,6.643,2.974,6.643,6.643
	c0,3.669-2.975,6.645-6.643,6.645c-3.67,0-6.643-2.976-6.643-6.645C81.766,25.308,84.738,22.334,88.408,22.334z"/>
<path fill="#1DC778" d="M33.298,36.707c0,6.929-5.909,12.893-15.623,12.893c-7.217,0-15.113-2.725-16.76-10.68l10.056-3.126
	c0.226,2.046,2.5,3.978,6.19,3.978c3.069,0,4.434-1.36,4.434-2.897c0-2.386-3.011-2.612-6.99-3.578
	c-7.669-1.818-12.101-5-12.101-12.214c0-7.615,6.365-12.67,15.113-12.67c6.987,0,13.125,3.58,14.599,10.453l-9.998,2.445
	c-0.454-1.59-1.816-3.069-4.489-3.069c-2.271,0-3.975,0.966-3.975,2.785c0,2.271,3.465,2.614,6.533,3.466
	C30.002,27.162,33.298,30.399,33.298,36.707z"/>
</svg>
